<mxfile host="app.diagrams.net" modified="2023-07-27T04:53:36.616Z" agent="Mozilla/5.0 (Windows NT 10.0; Win64; x64) AppleWebKit/537.36 (KHTML, like Gecko) Chrome/114.0.0.0 Safari/537.36" etag="lhSG4aLd2Ptbg-XbLg6P" version="21.6.5" type="github" pages="3">
  <diagram id="prtHgNgQTEPvFCAcTncT" name="Page-1">
    <mxGraphModel dx="1123" dy="715" grid="0" gridSize="10" guides="1" tooltips="1" connect="1" arrows="1" fold="1" page="1" pageScale="1" pageWidth="1200" pageHeight="1920" math="0" shadow="0">
      <root>
        <mxCell id="0" />
        <mxCell id="1" parent="0" />
        <mxCell id="wxNR8jub5OTBP7O7TFvM-21" value="" style="rounded=0;whiteSpace=wrap;html=1;fillColor=#dae8fc;strokeColor=#6c8ebf;" parent="1" vertex="1">
          <mxGeometry x="70" y="515" width="815" height="278" as="geometry" />
        </mxCell>
        <mxCell id="FxrlEH73ub6lJjBH4d50-14" value="" style="rounded=0;whiteSpace=wrap;html=1;fillColor=#f8cecc;strokeColor=#b85450;" vertex="1" parent="1">
          <mxGeometry x="125" y="525" width="720" height="260" as="geometry" />
        </mxCell>
        <mxCell id="wxNR8jub5OTBP7O7TFvM-15" value="" style="rounded=0;whiteSpace=wrap;html=1;fillColor=#dae8fc;strokeColor=#6c8ebf;" parent="1" vertex="1">
          <mxGeometry x="70" y="793" width="815" height="380" as="geometry" />
        </mxCell>
        <mxCell id="wxNR8jub5OTBP7O7TFvM-14" value="" style="rounded=0;whiteSpace=wrap;html=1;fillColor=#d5e8d4;strokeColor=#82b366;" parent="1" vertex="1">
          <mxGeometry x="545" y="813" width="320" height="340" as="geometry" />
        </mxCell>
        <mxCell id="wxNR8jub5OTBP7O7TFvM-1" value="" style="rounded=0;whiteSpace=wrap;html=1;fillColor=#fff2cc;strokeColor=#d6b656;" parent="1" vertex="1">
          <mxGeometry x="105" y="813" width="420" height="340" as="geometry" />
        </mxCell>
        <mxCell id="wxNR8jub5OTBP7O7TFvM-2" value="恶意域名解析拦截" style="rounded=1;whiteSpace=wrap;html=1;fillColor=#cdeb8b;strokeColor=#36393d;" parent="1" vertex="1">
          <mxGeometry x="125" y="993" width="120" height="60" as="geometry" />
        </mxCell>
        <mxCell id="wxNR8jub5OTBP7O7TFvM-3" value="恶意外联IP请求拦截" style="rounded=1;whiteSpace=wrap;html=1;fillColor=#cce5ff;strokeColor=#36393d;" parent="1" vertex="1">
          <mxGeometry x="255" y="993" width="120" height="60" as="geometry" />
        </mxCell>
        <mxCell id="wxNR8jub5OTBP7O7TFvM-4" value="非合规水印安装包进程拦截" style="rounded=1;whiteSpace=wrap;html=1;fillColor=#ffcc99;strokeColor=#36393d;" parent="1" vertex="1">
          <mxGeometry x="385" y="993" width="120" height="60" as="geometry" />
        </mxCell>
        <mxCell id="wxNR8jub5OTBP7O7TFvM-5" value="安全策略接收执行" style="rounded=1;whiteSpace=wrap;html=1;fillColor=#e6d0de;strokeColor=#996185;gradientColor=#d5739d;" parent="1" vertex="1">
          <mxGeometry x="125" y="853" width="180" height="60" as="geometry" />
        </mxCell>
        <mxCell id="wxNR8jub5OTBP7O7TFvM-6" value="终端内外网环境识别" style="rounded=1;whiteSpace=wrap;html=1;fillColor=#e1d5e7;strokeColor=#9673a6;" parent="1" vertex="1">
          <mxGeometry x="125" y="923" width="80" height="60" as="geometry" />
        </mxCell>
        <mxCell id="wxNR8jub5OTBP7O7TFvM-7" value="终端内外网安全策略切换" style="rounded=1;whiteSpace=wrap;html=1;fillColor=#e1d5e7;strokeColor=#9673a6;" parent="1" vertex="1">
          <mxGeometry x="225" y="923" width="80" height="60" as="geometry" />
        </mxCell>
        <mxCell id="wxNR8jub5OTBP7O7TFvM-8" value="终端逃生通道" style="rounded=1;whiteSpace=wrap;html=1;fillColor=#d0cee2;strokeColor=#56517e;" parent="1" vertex="1">
          <mxGeometry x="565" y="853" width="280" height="60" as="geometry" />
        </mxCell>
        <mxCell id="wxNR8jub5OTBP7O7TFvM-9" value="终端防卸载" style="rounded=1;whiteSpace=wrap;html=1;fillColor=#bac8d3;strokeColor=#23445d;" parent="1" vertex="1">
          <mxGeometry x="565" y="953" width="280" height="60" as="geometry" />
        </mxCell>
        <mxCell id="wxNR8jub5OTBP7O7TFvM-10" value="恶意程序定位" style="rounded=1;whiteSpace=wrap;html=1;fillColor=#647687;strokeColor=#314354;fontColor=#ffffff;" parent="1" vertex="1">
          <mxGeometry x="125" y="1063" width="380" height="60" as="geometry" />
        </mxCell>
        <mxCell id="wxNR8jub5OTBP7O7TFvM-11" value="自动检测更新" style="rounded=1;whiteSpace=wrap;html=1;fillColor=#b1ddf0;strokeColor=#10739e;" parent="1" vertex="1">
          <mxGeometry x="565" y="1053" width="280" height="60" as="geometry" />
        </mxCell>
        <mxCell id="wxNR8jub5OTBP7O7TFvM-12" value="终端信息采集" style="rounded=1;whiteSpace=wrap;html=1;fillColor=#f8cecc;strokeColor=#b85450;gradientColor=#ea6b66;" parent="1" vertex="1">
          <mxGeometry x="325" y="853" width="180" height="60" as="geometry" />
        </mxCell>
        <mxCell id="wxNR8jub5OTBP7O7TFvM-16" value="业务逻辑部分" style="text;html=1;strokeColor=none;fillColor=none;align=center;verticalAlign=middle;whiteSpace=wrap;rounded=0;fontSize=18;fontStyle=1" parent="1" vertex="1">
          <mxGeometry x="255" y="813" width="120" height="30" as="geometry" />
        </mxCell>
        <mxCell id="wxNR8jub5OTBP7O7TFvM-18" value="终端基本信息采集" style="rounded=1;whiteSpace=wrap;html=1;fillColor=#fad9d5;strokeColor=#ae4132;" parent="1" vertex="1">
          <mxGeometry x="325" y="923" width="80" height="60" as="geometry" />
        </mxCell>
        <mxCell id="wxNR8jub5OTBP7O7TFvM-19" value="Ukey证书相关PKICA信息采集" style="rounded=1;whiteSpace=wrap;html=1;fillColor=#fad9d5;strokeColor=#ae4132;" parent="1" vertex="1">
          <mxGeometry x="425" y="923" width="80" height="60" as="geometry" />
        </mxCell>
        <mxCell id="wxNR8jub5OTBP7O7TFvM-20" value="其它部分" style="text;html=1;strokeColor=none;fillColor=none;align=center;verticalAlign=middle;whiteSpace=wrap;rounded=0;fontSize=18;fontStyle=1" parent="1" vertex="1">
          <mxGeometry x="645" y="813" width="120" height="30" as="geometry" />
        </mxCell>
        <mxCell id="FxrlEH73ub6lJjBH4d50-3" value="级联配置" style="rounded=1;whiteSpace=wrap;html=1;fillColor=#b1ddf0;strokeColor=#10739e;" vertex="1" parent="1">
          <mxGeometry x="345" y="635" width="65" height="130" as="geometry" />
        </mxCell>
        <mxCell id="FxrlEH73ub6lJjBH4d50-4" value="安全策略配置" style="rounded=1;whiteSpace=wrap;html=1;fillColor=#fff2cc;strokeColor=#d6b656;" vertex="1" parent="1">
          <mxGeometry x="170" y="700" width="80" height="65" as="geometry" />
        </mxCell>
        <mxCell id="FxrlEH73ub6lJjBH4d50-5" value="自主配置" style="rounded=1;whiteSpace=wrap;html=1;fillColor=#fff2cc;strokeColor=#d6b656;" vertex="1" parent="1">
          <mxGeometry x="257" y="700" width="76" height="65" as="geometry" />
        </mxCell>
        <mxCell id="FxrlEH73ub6lJjBH4d50-6" value="终端资产分组及权限管控" style="rounded=1;whiteSpace=wrap;html=1;fillColor=#e3c800;strokeColor=#B09500;fontColor=#000000;" vertex="1" parent="1">
          <mxGeometry x="170" y="635" width="170" height="60" as="geometry" />
        </mxCell>
        <mxCell id="FxrlEH73ub6lJjBH4d50-7" value="告警管控" style="rounded=1;whiteSpace=wrap;html=1;fillColor=#1ba1e2;strokeColor=#006EAF;fontColor=#ffffff;" vertex="1" parent="1">
          <mxGeometry x="170" y="565" width="500" height="60" as="geometry" />
        </mxCell>
        <mxCell id="FxrlEH73ub6lJjBH4d50-8" value="报表管理" style="rounded=1;whiteSpace=wrap;html=1;fillColor=#fff2cc;gradientColor=#ffd966;strokeColor=#d6b656;" vertex="1" parent="1">
          <mxGeometry x="700" y="695" width="120" height="70" as="geometry" />
        </mxCell>
        <mxCell id="FxrlEH73ub6lJjBH4d50-9" value="网络拓扑分析" style="rounded=1;whiteSpace=wrap;html=1;fillColor=#60a917;strokeColor=#2D7600;fontColor=#ffffff;" vertex="1" parent="1">
          <mxGeometry x="510" y="702.5" width="80" height="60" as="geometry" />
        </mxCell>
        <mxCell id="FxrlEH73ub6lJjBH4d50-10" value="安装包合规水印控制" style="rounded=1;whiteSpace=wrap;html=1;fillColor=#d0cee2;strokeColor=#56517e;" vertex="1" parent="1">
          <mxGeometry x="600" y="635" width="70" height="127.5" as="geometry" />
        </mxCell>
        <mxCell id="FxrlEH73ub6lJjBH4d50-11" value="一键朔源取证管控" style="rounded=1;whiteSpace=wrap;html=1;fillColor=#008a00;fontColor=#ffffff;strokeColor=#005700;" vertex="1" parent="1">
          <mxGeometry x="420" y="635" width="170" height="60" as="geometry" />
        </mxCell>
        <mxCell id="FxrlEH73ub6lJjBH4d50-12" value="系统管理" style="rounded=1;whiteSpace=wrap;html=1;fillColor=#6a00ff;strokeColor=#3700CC;fontColor=#ffffff;" vertex="1" parent="1">
          <mxGeometry x="700" y="565" width="120" height="120" as="geometry" />
        </mxCell>
        <mxCell id="FxrlEH73ub6lJjBH4d50-13" value="网络活动监测管控" style="rounded=1;whiteSpace=wrap;html=1;fillColor=#60a917;strokeColor=#2D7600;fontColor=#ffffff;" vertex="1" parent="1">
          <mxGeometry x="420" y="702.5" width="80" height="60" as="geometry" />
        </mxCell>
        <mxCell id="FxrlEH73ub6lJjBH4d50-15" value="服务端" style="text;html=1;strokeColor=none;fillColor=none;align=center;verticalAlign=middle;whiteSpace=wrap;rounded=0;fontSize=28;" vertex="1" parent="1">
          <mxGeometry x="65" y="620" width="55" height="80" as="geometry" />
        </mxCell>
        <mxCell id="FxrlEH73ub6lJjBH4d50-16" value="客户端" style="text;html=1;strokeColor=none;fillColor=none;align=center;verticalAlign=middle;whiteSpace=wrap;rounded=0;fontSize=28;" vertex="1" parent="1">
          <mxGeometry x="60" y="933" width="55" height="80" as="geometry" />
        </mxCell>
      </root>
    </mxGraphModel>
  </diagram>
  <diagram id="JxpS8Tr_58sO9veV4pY8" name="第 2 页">
    <mxGraphModel dx="1082" dy="536" grid="0" gridSize="10" guides="1" tooltips="1" connect="1" arrows="1" fold="1" page="1" pageScale="1" pageWidth="1200" pageHeight="1920" math="0" shadow="0">
      <root>
        <mxCell id="0" />
        <mxCell id="1" parent="0" />
        <mxCell id="nHROvYSrLRaLCmDuqoHG-1" value="" style="rounded=0;whiteSpace=wrap;html=1;fillColor=#dae8fc;strokeColor=#6c8ebf;" vertex="1" parent="1">
          <mxGeometry x="70" y="523" width="815" height="270" as="geometry" />
        </mxCell>
        <mxCell id="nHROvYSrLRaLCmDuqoHG-2" value="" style="rounded=0;whiteSpace=wrap;html=1;fillColor=#f8cecc;strokeColor=#b85450;" vertex="1" parent="1">
          <mxGeometry x="125" y="537" width="720" height="248" as="geometry" />
        </mxCell>
        <mxCell id="nHROvYSrLRaLCmDuqoHG-3" value="" style="rounded=0;whiteSpace=wrap;html=1;fillColor=#dae8fc;strokeColor=#6c8ebf;" vertex="1" parent="1">
          <mxGeometry x="70" y="793" width="815" height="464" as="geometry" />
        </mxCell>
        <mxCell id="nHROvYSrLRaLCmDuqoHG-6" value="恶意域名解析拦截" style="rounded=1;whiteSpace=wrap;html=1;fillColor=#cdeb8b;strokeColor=#36393d;" vertex="1" parent="1">
          <mxGeometry x="125" y="993" width="120" height="60" as="geometry" />
        </mxCell>
        <mxCell id="nHROvYSrLRaLCmDuqoHG-7" value="恶意外联IP请求拦截" style="rounded=1;whiteSpace=wrap;html=1;fillColor=#cce5ff;strokeColor=#36393d;" vertex="1" parent="1">
          <mxGeometry x="255" y="993" width="120" height="60" as="geometry" />
        </mxCell>
        <mxCell id="nHROvYSrLRaLCmDuqoHG-8" value="非合规水印安装包进程拦截" style="rounded=1;whiteSpace=wrap;html=1;fillColor=#ffcc99;strokeColor=#36393d;" vertex="1" parent="1">
          <mxGeometry x="385" y="993" width="120" height="60" as="geometry" />
        </mxCell>
        <mxCell id="nHROvYSrLRaLCmDuqoHG-9" value="安全策略接收执行" style="rounded=1;whiteSpace=wrap;html=1;fillColor=#e6d0de;strokeColor=#996185;gradientColor=#d5739d;" vertex="1" parent="1">
          <mxGeometry x="125" y="853" width="180" height="60" as="geometry" />
        </mxCell>
        <mxCell id="nHROvYSrLRaLCmDuqoHG-10" value="终端内外网环境识别" style="rounded=1;whiteSpace=wrap;html=1;fillColor=#e1d5e7;strokeColor=#9673a6;" vertex="1" parent="1">
          <mxGeometry x="125" y="923" width="80" height="60" as="geometry" />
        </mxCell>
        <mxCell id="nHROvYSrLRaLCmDuqoHG-11" value="终端内外网安全策略切换" style="rounded=1;whiteSpace=wrap;html=1;fillColor=#e1d5e7;strokeColor=#9673a6;" vertex="1" parent="1">
          <mxGeometry x="225" y="923" width="80" height="60" as="geometry" />
        </mxCell>
        <mxCell id="nHROvYSrLRaLCmDuqoHG-12" value="终端逃生通道" style="rounded=1;whiteSpace=wrap;html=1;fillColor=#d0cee2;strokeColor=#56517e;" vertex="1" parent="1">
          <mxGeometry x="152" y="1173" width="178" height="60" as="geometry" />
        </mxCell>
        <mxCell id="nHROvYSrLRaLCmDuqoHG-13" value="终端防卸载" style="rounded=1;whiteSpace=wrap;html=1;fillColor=#bac8d3;strokeColor=#23445d;" vertex="1" parent="1">
          <mxGeometry x="385" y="1173" width="194" height="60" as="geometry" />
        </mxCell>
        <mxCell id="nHROvYSrLRaLCmDuqoHG-14" value="恶意程序定位" style="rounded=1;whiteSpace=wrap;html=1;fillColor=#647687;strokeColor=#314354;fontColor=#ffffff;" vertex="1" parent="1">
          <mxGeometry x="155" y="1097" width="380" height="60" as="geometry" />
        </mxCell>
        <mxCell id="nHROvYSrLRaLCmDuqoHG-15" value="自动检测更新" style="rounded=1;whiteSpace=wrap;html=1;fillColor=#b1ddf0;strokeColor=#10739e;" vertex="1" parent="1">
          <mxGeometry x="634" y="1173" width="205" height="60" as="geometry" />
        </mxCell>
        <mxCell id="nHROvYSrLRaLCmDuqoHG-16" value="终端信息采集" style="rounded=1;whiteSpace=wrap;html=1;fillColor=#f8cecc;strokeColor=#b85450;gradientColor=#ea6b66;" vertex="1" parent="1">
          <mxGeometry x="325" y="853" width="180" height="60" as="geometry" />
        </mxCell>
        <mxCell id="nHROvYSrLRaLCmDuqoHG-18" value="终端基本信息采集" style="rounded=1;whiteSpace=wrap;html=1;fillColor=#fad9d5;strokeColor=#ae4132;" vertex="1" parent="1">
          <mxGeometry x="325" y="923" width="80" height="60" as="geometry" />
        </mxCell>
        <mxCell id="nHROvYSrLRaLCmDuqoHG-19" value="Ukey证书相关PKICA信息采集" style="rounded=1;whiteSpace=wrap;html=1;fillColor=#fad9d5;strokeColor=#ae4132;" vertex="1" parent="1">
          <mxGeometry x="425" y="923" width="80" height="60" as="geometry" />
        </mxCell>
        <mxCell id="nHROvYSrLRaLCmDuqoHG-21" value="级联配置" style="rounded=1;whiteSpace=wrap;html=1;fillColor=#b1ddf0;strokeColor=#10739e;" vertex="1" parent="1">
          <mxGeometry x="345" y="635" width="65" height="130" as="geometry" />
        </mxCell>
        <mxCell id="nHROvYSrLRaLCmDuqoHG-22" value="安全策略配置" style="rounded=1;whiteSpace=wrap;html=1;fillColor=#fff2cc;strokeColor=#d6b656;" vertex="1" parent="1">
          <mxGeometry x="170" y="700" width="80" height="65" as="geometry" />
        </mxCell>
        <mxCell id="nHROvYSrLRaLCmDuqoHG-23" value="自主配置" style="rounded=1;whiteSpace=wrap;html=1;fillColor=#fff2cc;strokeColor=#d6b656;" vertex="1" parent="1">
          <mxGeometry x="257" y="700" width="76" height="65" as="geometry" />
        </mxCell>
        <mxCell id="nHROvYSrLRaLCmDuqoHG-24" value="终端资产分组及权限管控" style="rounded=1;whiteSpace=wrap;html=1;fillColor=#e3c800;strokeColor=#B09500;fontColor=#000000;" vertex="1" parent="1">
          <mxGeometry x="170" y="635" width="170" height="60" as="geometry" />
        </mxCell>
        <mxCell id="nHROvYSrLRaLCmDuqoHG-25" value="告警管控" style="rounded=1;whiteSpace=wrap;html=1;fillColor=#1ba1e2;strokeColor=#006EAF;fontColor=#ffffff;" vertex="1" parent="1">
          <mxGeometry x="170" y="565" width="500" height="60" as="geometry" />
        </mxCell>
        <mxCell id="nHROvYSrLRaLCmDuqoHG-26" value="报表管理" style="rounded=1;whiteSpace=wrap;html=1;fillColor=#fff2cc;gradientColor=#ffd966;strokeColor=#d6b656;" vertex="1" parent="1">
          <mxGeometry x="700" y="695" width="120" height="70" as="geometry" />
        </mxCell>
        <mxCell id="nHROvYSrLRaLCmDuqoHG-27" value="网络拓扑分析" style="rounded=1;whiteSpace=wrap;html=1;fillColor=#60a917;strokeColor=#2D7600;fontColor=#ffffff;" vertex="1" parent="1">
          <mxGeometry x="510" y="702.5" width="80" height="60" as="geometry" />
        </mxCell>
        <mxCell id="nHROvYSrLRaLCmDuqoHG-28" value="安装包合规水印控制" style="rounded=1;whiteSpace=wrap;html=1;fillColor=#d0cee2;strokeColor=#56517e;" vertex="1" parent="1">
          <mxGeometry x="600" y="635" width="70" height="127.5" as="geometry" />
        </mxCell>
        <mxCell id="nHROvYSrLRaLCmDuqoHG-29" value="一键朔源取证管控" style="rounded=1;whiteSpace=wrap;html=1;fillColor=#008a00;fontColor=#ffffff;strokeColor=#005700;" vertex="1" parent="1">
          <mxGeometry x="420" y="635" width="170" height="60" as="geometry" />
        </mxCell>
        <mxCell id="nHROvYSrLRaLCmDuqoHG-30" value="系统管理" style="rounded=1;whiteSpace=wrap;html=1;fillColor=#6a00ff;strokeColor=#3700CC;fontColor=#ffffff;" vertex="1" parent="1">
          <mxGeometry x="700" y="565" width="120" height="120" as="geometry" />
        </mxCell>
        <mxCell id="nHROvYSrLRaLCmDuqoHG-31" value="网络活动监测管控" style="rounded=1;whiteSpace=wrap;html=1;fillColor=#60a917;strokeColor=#2D7600;fontColor=#ffffff;" vertex="1" parent="1">
          <mxGeometry x="420" y="702.5" width="80" height="60" as="geometry" />
        </mxCell>
      </root>
    </mxGraphModel>
  </diagram>
  <diagram id="wuaRLVBULmAQ-_p62o6H" name="第 3 页">
    <mxGraphModel dx="842" dy="536" grid="1" gridSize="10" guides="1" tooltips="1" connect="1" arrows="1" fold="1" page="1" pageScale="1" pageWidth="1200" pageHeight="1920" math="0" shadow="0">
      <root>
        <mxCell id="0" />
        <mxCell id="1" parent="0" />
        <mxCell id="gxcYKeE8cosAsWTpbWNt-3" value="级联配置" style="rounded=1;whiteSpace=wrap;html=1;fillColor=#b1ddf0;strokeColor=#10739e;" vertex="1" parent="1">
          <mxGeometry x="430" y="860" width="160" height="50" as="geometry" />
        </mxCell>
        <mxCell id="gxcYKeE8cosAsWTpbWNt-4" value="安全策略配置" style="rounded=1;whiteSpace=wrap;html=1;fillColor=#fff2cc;strokeColor=#d6b656;" vertex="1" parent="1">
          <mxGeometry x="190" y="860" width="220" height="50" as="geometry" />
        </mxCell>
        <mxCell id="gxcYKeE8cosAsWTpbWNt-5" value="终端安全策略自主配置" style="rounded=1;whiteSpace=wrap;html=1;fillColor=#fff2cc;strokeColor=#d6b656;" vertex="1" parent="1">
          <mxGeometry x="250" y="660" width="50" height="100" as="geometry" />
        </mxCell>
        <mxCell id="gxcYKeE8cosAsWTpbWNt-6" value="终端资产分组及权限管控" style="rounded=1;whiteSpace=wrap;html=1;fillColor=#e3c800;strokeColor=#B09500;fontColor=#000000;" vertex="1" parent="1">
          <mxGeometry x="47.5" y="590" width="262.5" height="60" as="geometry" />
        </mxCell>
        <mxCell id="gxcYKeE8cosAsWTpbWNt-7" value="告警管控" style="rounded=1;whiteSpace=wrap;html=1;fillColor=#1ba1e2;strokeColor=#006EAF;fontColor=#ffffff;" vertex="1" parent="1">
          <mxGeometry x="170" y="460" width="500" height="60" as="geometry" />
        </mxCell>
        <mxCell id="gxcYKeE8cosAsWTpbWNt-8" value="报表管理" style="rounded=1;whiteSpace=wrap;html=1;fillColor=#fff2cc;gradientColor=#ffd966;strokeColor=#d6b656;" vertex="1" parent="1">
          <mxGeometry x="100" y="1070" width="150" height="50" as="geometry" />
        </mxCell>
        <mxCell id="gxcYKeE8cosAsWTpbWNt-9" value="网络拓扑分析" style="rounded=1;whiteSpace=wrap;html=1;fillColor=#60a917;strokeColor=#2D7600;fontColor=#ffffff;" vertex="1" parent="1">
          <mxGeometry x="470" y="660" width="120" height="40" as="geometry" />
        </mxCell>
        <mxCell id="gxcYKeE8cosAsWTpbWNt-10" value="安装包合规水印控制" style="rounded=1;whiteSpace=wrap;html=1;fillColor=#d0cee2;strokeColor=#56517e;" vertex="1" parent="1">
          <mxGeometry x="610" y="860" width="220" height="50" as="geometry" />
        </mxCell>
        <mxCell id="gxcYKeE8cosAsWTpbWNt-11" value="一键朔源取证管控" style="rounded=1;whiteSpace=wrap;html=1;fillColor=#008a00;fontColor=#ffffff;strokeColor=#005700;" vertex="1" parent="1">
          <mxGeometry x="340" y="590" width="250" height="60" as="geometry" />
        </mxCell>
        <mxCell id="gxcYKeE8cosAsWTpbWNt-12" value="系统管理" style="rounded=1;whiteSpace=wrap;html=1;fillColor=#6a00ff;strokeColor=#3700CC;fontColor=#ffffff;" vertex="1" parent="1">
          <mxGeometry x="620" y="610" width="230" height="50" as="geometry" />
        </mxCell>
        <mxCell id="gxcYKeE8cosAsWTpbWNt-13" value="网络活动监测管控" style="rounded=1;whiteSpace=wrap;html=1;fillColor=#60a917;strokeColor=#2D7600;fontColor=#ffffff;" vertex="1" parent="1">
          <mxGeometry x="340" y="660" width="120" height="40" as="geometry" />
        </mxCell>
        <mxCell id="gxcYKeE8cosAsWTpbWNt-16" value="用户管理" style="rounded=1;whiteSpace=wrap;html=1;" vertex="1" parent="1">
          <mxGeometry x="620" y="670" width="50" height="160" as="geometry" />
        </mxCell>
        <mxCell id="gxcYKeE8cosAsWTpbWNt-17" value="菜单管理" style="rounded=1;whiteSpace=wrap;html=1;" vertex="1" parent="1">
          <mxGeometry x="680" y="670" width="50" height="160" as="geometry" />
        </mxCell>
        <mxCell id="gxcYKeE8cosAsWTpbWNt-18" value="角色管理" style="rounded=1;whiteSpace=wrap;html=1;" vertex="1" parent="1">
          <mxGeometry x="740" y="670" width="50" height="160" as="geometry" />
        </mxCell>
        <mxCell id="gxcYKeE8cosAsWTpbWNt-19" value="日志管理" style="rounded=1;whiteSpace=wrap;html=1;" vertex="1" parent="1">
          <mxGeometry x="800" y="670" width="50" height="160" as="geometry" />
        </mxCell>
        <mxCell id="gxcYKeE8cosAsWTpbWNt-21" value="安装包水印添加" style="rounded=1;whiteSpace=wrap;html=1;" vertex="1" parent="1">
          <mxGeometry x="620" y="920" width="55" height="170" as="geometry" />
        </mxCell>
        <mxCell id="gxcYKeE8cosAsWTpbWNt-23" value="安装包版本管理" style="rounded=1;whiteSpace=wrap;html=1;" vertex="1" parent="1">
          <mxGeometry x="690" y="920" width="55" height="170" as="geometry" />
        </mxCell>
        <mxCell id="gxcYKeE8cosAsWTpbWNt-24" value="安装包拦截策略" style="rounded=1;whiteSpace=wrap;html=1;" vertex="1" parent="1">
          <mxGeometry x="765" y="920" width="55" height="170" as="geometry" />
        </mxCell>
        <mxCell id="gxcYKeE8cosAsWTpbWNt-25" value="当前节点管理信息维护及上报" style="rounded=1;whiteSpace=wrap;html=1;" vertex="1" parent="1">
          <mxGeometry x="440" y="920" width="60" height="170" as="geometry" />
        </mxCell>
        <mxCell id="gxcYKeE8cosAsWTpbWNt-26" value="下级节点接入审批及管理" style="rounded=1;whiteSpace=wrap;html=1;" vertex="1" parent="1">
          <mxGeometry x="520" y="920" width="60" height="170" as="geometry" />
        </mxCell>
        <mxCell id="gxcYKeE8cosAsWTpbWNt-27" value="恶意域名黑白名单管理" style="rounded=1;whiteSpace=wrap;html=1;" vertex="1" parent="1">
          <mxGeometry x="205" y="920" width="55" height="110" as="geometry" />
        </mxCell>
        <mxCell id="gxcYKeE8cosAsWTpbWNt-28" value="外联IP黑白名单管理" style="rounded=1;whiteSpace=wrap;html=1;" vertex="1" parent="1">
          <mxGeometry x="272.5" y="920" width="55" height="110" as="geometry" />
        </mxCell>
        <mxCell id="gxcYKeE8cosAsWTpbWNt-29" value="防火墙安全策略管理" style="rounded=1;whiteSpace=wrap;html=1;" vertex="1" parent="1">
          <mxGeometry x="340" y="920" width="55" height="110" as="geometry" />
        </mxCell>
        <mxCell id="gxcYKeE8cosAsWTpbWNt-30" value="报表生成与管理" style="rounded=1;whiteSpace=wrap;html=1;" vertex="1" parent="1">
          <mxGeometry x="113.75" y="1130" width="55" height="110" as="geometry" />
        </mxCell>
        <mxCell id="gxcYKeE8cosAsWTpbWNt-31" value="报表下载" style="rounded=1;whiteSpace=wrap;html=1;" vertex="1" parent="1">
          <mxGeometry x="181.25" y="1130" width="55" height="110" as="geometry" />
        </mxCell>
        <mxCell id="gxcYKeE8cosAsWTpbWNt-32" value="终端设备管理" style="rounded=1;whiteSpace=wrap;html=1;" vertex="1" parent="1">
          <mxGeometry x="70" y="660" width="50" height="100" as="geometry" />
        </mxCell>
        <mxCell id="gxcYKeE8cosAsWTpbWNt-33" value="终端分组管理" style="rounded=1;whiteSpace=wrap;html=1;" vertex="1" parent="1">
          <mxGeometry x="131.25" y="660" width="50" height="100" as="geometry" />
        </mxCell>
        <mxCell id="gxcYKeE8cosAsWTpbWNt-34" value="终端分组安全策略管理" style="rounded=1;whiteSpace=wrap;html=1;" vertex="1" parent="1">
          <mxGeometry x="190" y="660" width="50" height="100" as="geometry" />
        </mxCell>
        <mxCell id="gxcYKeE8cosAsWTpbWNt-35" value="节点与终端管控关系图" style="rounded=1;whiteSpace=wrap;html=1;" vertex="1" parent="1">
          <mxGeometry x="480" y="710" width="50" height="100" as="geometry" />
        </mxCell>
        <mxCell id="gxcYKeE8cosAsWTpbWNt-36" value="节点及终端信息" style="rounded=1;whiteSpace=wrap;html=1;" vertex="1" parent="1">
          <mxGeometry x="540" y="710" width="50" height="100" as="geometry" />
        </mxCell>
        <mxCell id="gxcYKeE8cosAsWTpbWNt-37" value="终端基本进行采集" style="rounded=1;whiteSpace=wrap;html=1;" vertex="1" parent="1">
          <mxGeometry x="350" y="710" width="50" height="50" as="geometry" />
        </mxCell>
        <mxCell id="gxcYKeE8cosAsWTpbWNt-38" value="终端进程信息采集" style="rounded=1;whiteSpace=wrap;html=1;" vertex="1" parent="1">
          <mxGeometry x="405" y="710" width="50" height="50" as="geometry" />
        </mxCell>
        <mxCell id="gxcYKeE8cosAsWTpbWNt-40" value="软件安装情况采集" style="rounded=1;whiteSpace=wrap;html=1;" vertex="1" parent="1">
          <mxGeometry x="350" y="760" width="50" height="50" as="geometry" />
        </mxCell>
        <mxCell id="gxcYKeE8cosAsWTpbWNt-41" value="网络活动信息采集" style="rounded=1;whiteSpace=wrap;html=1;" vertex="1" parent="1">
          <mxGeometry x="405" y="760" width="50" height="50" as="geometry" />
        </mxCell>
      </root>
    </mxGraphModel>
  </diagram>
</mxfile>
